<svg width="44" height="44" viewBox="0 0 44 44" fill="none" xmlns="http://www.w3.org/2000/svg">
<path fill-rule="evenodd" clip-rule="evenodd" d="M6.37868 10.0454C5.5 10.9241 5.5 12.3383 5.5 15.1667V28.8334C5.5 31.6618 5.5 33.0761 6.37868 33.9547C7.25736 34.8334 8.67157 34.8334 11.5 34.8334H32.5C35.3284 34.8334 36.7426 34.8334 37.6213 33.9547C38.5 33.0761 38.5 31.6618 38.5 28.8334V15.1667C38.5 12.3383 38.5 10.9241 37.6213 10.0454C36.7426 9.16675 35.3284 9.16675 32.5 9.16675H11.5C8.67157 9.16675 7.25736 9.16675 6.37868 10.0454ZM11.5547 15.668C11.0952 15.3617 10.4743 15.4859 10.1679 15.9454C9.8616 16.4049 9.98577 17.0258 10.4453 17.3321L20.8906 24.2957C21.5624 24.7435 22.4376 24.7435 23.1094 24.2957L33.5547 17.3321C34.0142 17.0258 34.1384 16.4049 33.8321 15.9454C33.5257 15.4859 32.9048 15.3617 32.4453 15.668L22 22.6316L11.5547 15.668Z" fill="white"/>
</svg>
