<svg width="34" height="34" viewBox="0 0 34 34" fill="none" xmlns="http://www.w3.org/2000/svg">
<path d="M3.67962 5.26775L8.24026 0.707107C8.63079 0.316583 9.26395 0.316582 9.65447 0.707106L15.3982 6.45079C15.7887 6.84131 15.7887 7.47448 15.3982 7.865L11.6324 11.6307C11.0976 12.1656 10.965 12.9826 11.3033 13.6592C13.2587 17.5701 16.4299 20.7413 20.3408 22.6967C21.0174 23.035 21.8344 22.9024 22.3693 22.3676L26.135 18.6018C26.5255 18.2113 27.1587 18.2113 27.5492 18.6018L33.2929 24.3455C33.6834 24.736 33.6834 25.3692 33.2929 25.7597L28.7323 30.3204C26.6209 32.4317 23.2783 32.6693 20.8896 30.8777L13.3654 25.2346C11.6219 23.9269 10.0731 22.3781 8.76541 20.6346L3.12226 13.1104C1.33072 10.7217 1.56827 7.3791 3.67962 5.26775Z" fill="white"/>
</svg>
