<svg width="44" height="44" viewBox="0 0 44 44" fill="none" xmlns="http://www.w3.org/2000/svg">
<path fill-rule="evenodd" clip-rule="evenodd" d="M22.3966 36.4765C24.5595 35.4015 34.8334 29.7889 34.8334 20.1666C34.8334 13.0789 29.0877 7.33325 22 7.33325C14.9124 7.33325 9.16669 13.0789 9.16669 20.1666C9.16669 29.7889 19.4406 35.4015 21.6034 36.4765C21.8585 36.6032 22.1416 36.6032 22.3966 36.4765ZM22 25.6666C25.0376 25.6666 27.5 23.2041 27.5 20.1666C27.5 17.129 25.0376 14.6666 22 14.6666C18.9625 14.6666 16.5 17.129 16.5 20.1666C16.5 23.2041 18.9625 25.6666 22 25.6666Z" fill="white"/>
</svg>
